<svg xmlns="http://www.w3.org/2000/svg" width="16.872" height="271.441" viewBox="0 0 16.872 271.441">
  <g id="グループ_1093" data-name="グループ 1093" transform="translate(-1818 -820.728)">
    <path id="パス_281" data-name="パス 281" d="M189.325,712.658v192l6-16.7" transform="translate(1635.5 187.342)" fill="none" stroke="#e9e7e3" stroke-width="1"/>
    <path id="パス_968" data-name="パス 968" d="M1.728-3.552V-4.32a.3.3,0,0,1,.336-.336h1.08a.3.3,0,0,1,.336.336V-3.7a1.9,1.9,0,0,0,2.136,2.16H7.728A1.92,1.92,0,0,0,9.864-3.744V-4.56q0-1.728-2.856-2.256-1.2-.216-2.4-.5a4.262,4.262,0,0,1-2.04-1.116,3.04,3.04,0,0,1-.84-2.268V-11.88a3.519,3.519,0,0,1,.948-2.6,3.519,3.519,0,0,1,2.6-.948H7.944a3.528,3.528,0,0,1,2.592.948,3.494,3.494,0,0,1,.96,2.6v.6q0,.36-.312.36h-1.1q-.312,0-.312-.36v-.432A1.909,1.909,0,0,0,7.632-13.9H5.592q-2.136,0-2.136,2.28v.96q0,1.224,1.608,1.68.72.192,1.584.348a17.613,17.613,0,0,1,1.74.408,8.724,8.724,0,0,1,1.6.624,2.865,2.865,0,0,1,1.164,1.128,3.567,3.567,0,0,1,.444,1.836v1.08a3.494,3.494,0,0,1-.96,2.6A3.528,3.528,0,0,1,8.04,0H5.28A3.528,3.528,0,0,1,2.688-.948,3.494,3.494,0,0,1,1.728-3.552ZM24.5-1.2v.888Q24.5,0,24.168,0h-3.48a3.545,3.545,0,0,1-2.6-.936,3.51,3.51,0,0,1-.948-2.616V-8.688a3.51,3.51,0,0,1,.948-2.616,3.545,3.545,0,0,1,2.6-.936h3.48a.3.3,0,0,1,.336.336v.888q0,.312-.336.312H20.88q-1.992,0-1.992,2.088v4.992q0,2.088,1.992,2.088h3.288A.3.3,0,0,1,24.5-1.2ZM30.768,0h-1.08a.3.3,0,0,1-.336-.336V-11.9a.3.3,0,0,1,.336-.336h1.08a.3.3,0,0,1,.336.336v.96h.1a2.081,2.081,0,0,1,.912-.912A3.139,3.139,0,0,1,33.7-12.24h.936q.312,0,.312.336v.888a.379.379,0,0,1-.072.252.251.251,0,0,1-.24.06h-1.3a2.1,2.1,0,0,0-1.656.648A2.578,2.578,0,0,0,31.1-8.28V-.336A.3.3,0,0,1,30.768,0ZM44.88,0H42.816a3.545,3.545,0,0,1-2.6-.936,3.51,3.51,0,0,1-.948-2.616V-8.688a3.51,3.51,0,0,1,.948-2.616,3.545,3.545,0,0,1,2.6-.936H44.88a3.545,3.545,0,0,1,2.6.936,3.51,3.51,0,0,1,.948,2.616v5.136a3.51,3.51,0,0,1-.948,2.616A3.545,3.545,0,0,1,44.88,0ZM43.008-1.536h1.68A1.8,1.8,0,0,0,46.7-3.6V-8.64A1.8,1.8,0,0,0,44.688-10.7h-1.68A1.8,1.8,0,0,0,40.992-8.64V-3.6A1.8,1.8,0,0,0,43.008-1.536ZM55.44,0H54.36a.3.3,0,0,1-.336-.336v-16.2a.3.3,0,0,1,.336-.336h1.08a.3.3,0,0,1,.336.336v16.2A.3.3,0,0,1,55.44,0Zm7.7,0h-1.08a.3.3,0,0,1-.336-.336v-16.2a.3.3,0,0,1,.336-.336h1.08a.3.3,0,0,1,.336.336v16.2A.3.3,0,0,1,63.144,0Z" transform="translate(1818 819) rotate(90)" fill="#fff"/>
  </g>
</svg>
